<svg width="25" height="25" viewBox="0 0 25 25" fill="none" xmlns="http://www.w3.org/2000/svg">
<path d="M8.98101 22.437C9.07095 22.5345 9.11878 22.6636 9.11409 22.7961C9.10941 22.9287 9.0526 23.0541 8.95601 23.145L7.87001 24.1605C7.77304 24.2506 7.64427 24.2985 7.51199 24.2937C7.3797 24.289 7.25473 24.2319 7.16451 24.135L0.840012 17.319C0.750137 17.2214 0.7024 17.0923 0.707175 16.9598C0.71195 16.8272 0.76885 16.7019 0.865512 16.611L1.95301 15.597C2.001 15.5523 2.05732 15.5176 2.11875 15.4947C2.18018 15.4718 2.24553 15.4612 2.31105 15.4636C2.37657 15.4659 2.44098 15.4812 2.5006 15.5085C2.56022 15.5357 2.61388 15.5745 2.65851 15.6225L8.98101 22.437ZM17.051 9.61201C17.1409 9.70958 17.1886 9.83868 17.1838 9.97125C17.1791 10.1038 17.1222 10.2292 17.0255 10.32L10.1905 16.705C10.0935 16.7951 9.96477 16.843 9.83249 16.8382C9.7002 16.8335 9.57523 16.7764 9.48501 16.6795L7.85351 14.919C7.76364 14.8214 7.7159 14.6923 7.72067 14.5598C7.72545 14.4272 7.78235 14.3019 7.87901 14.211L14.7125 7.82601C14.7605 7.78135 14.8167 7.74658 14.8781 7.72369C14.9395 7.7008 15.0048 7.69024 15.0703 7.69261C15.1358 7.69498 15.2001 7.71023 15.2597 7.7375C15.3193 7.76476 15.3729 7.8035 15.4175 7.85151L17.051 9.61201ZM11.3065 20.2635C11.4935 20.465 11.482 20.7835 11.281 20.9715L10.1935 21.9865C10.1455 22.0312 10.0892 22.066 10.0278 22.0889C9.96634 22.1118 9.901 22.1223 9.83548 22.1199C9.76996 22.1176 9.70555 22.1023 9.64593 22.0751C9.58631 22.0478 9.53265 22.009 9.48801 21.961L3.16701 15.145C3.07707 15.0475 3.02925 14.9184 3.03393 14.7859C3.03861 14.6533 3.09542 14.5279 3.19201 14.437L4.27751 13.4225C4.37449 13.3324 4.50326 13.2845 4.63554 13.2893C4.76782 13.2941 4.8928 13.3511 4.98301 13.448L11.3065 20.2635ZM21.838 9.85651C21.9278 9.95415 21.9755 10.0833 21.9706 10.2159C21.9657 10.3484 21.9087 10.4737 21.812 10.5645L20.725 11.5795C20.628 11.6697 20.4992 11.7177 20.3668 11.713C20.2345 11.7083 20.1094 11.6513 20.019 11.5545L13.697 4.74001C13.6069 4.64256 13.559 4.51347 13.5637 4.38086C13.5684 4.24825 13.6253 4.12286 13.722 4.03201L14.812 3.01451C14.86 2.96985 14.9162 2.93508 14.9776 2.91219C15.039 2.8893 15.1043 2.87874 15.1698 2.88111C15.2353 2.88348 15.2996 2.89873 15.3592 2.926C15.4188 2.95326 15.4724 2.992 15.517 3.04001L21.838 9.85651ZM24.16 7.68651C24.2498 7.78422 24.2975 7.91338 24.2927 8.04599C24.2879 8.17861 24.2311 8.304 24.1345 8.39501L23.0495 9.40951C23.0016 9.4542 22.9453 9.489 22.884 9.51193C22.8226 9.53487 22.7573 9.54548 22.6918 9.54315C22.6264 9.54083 22.562 9.52562 22.5024 9.4984C22.4428 9.47118 22.3891 9.43248 22.3445 9.38451L16.0235 2.56701C15.9337 2.46936 15.8859 2.34024 15.8906 2.20763C15.8953 2.07501 15.952 1.94958 16.0485 1.85851L17.1345 0.842008C17.1824 0.797274 17.2386 0.762426 17.2999 0.739463C17.3612 0.716501 17.4265 0.705876 17.492 0.708199C17.5574 0.710521 17.6218 0.725746 17.6813 0.752998C17.7409 0.780251 17.7945 0.818995 17.839 0.867008L24.16 7.68651Z" fill="black"/>
</svg>
